<svg width="179" height="243" viewBox="0 0 179 243" fill="none" xmlns="http://www.w3.org/2000/svg">
<mask id="path-1-outside-1_2_30" maskUnits="userSpaceOnUse" x="11" y="40" width="120" height="162" fill="black">
<rect fill="white" x="11" y="40" width="120" height="162"/>
<path d="M19.9801 194V48.5455H71.8267C83.143 48.5455 92.518 50.6051 99.9517 54.7244C107.385 58.8437 112.949 64.4782 116.642 71.6278C120.335 78.7301 122.182 86.732 122.182 95.6335C122.182 104.582 120.312 112.632 116.571 119.781C112.878 126.884 107.291 132.518 99.8097 136.685C92.3759 140.804 83.0246 142.864 71.7557 142.864H36.1023V124.256H69.767C76.9167 124.256 82.7169 123.025 87.1676 120.562C91.6184 118.053 94.8854 114.644 96.9688 110.335C99.0521 106.027 100.094 101.126 100.094 95.6335C100.094 90.1411 99.0521 85.2642 96.9688 81.0028C94.8854 76.7415 91.5947 73.4034 87.0966 70.9886C82.6458 68.5739 76.7746 67.3665 69.483 67.3665H41.9261V194H19.9801Z"/>
</mask>
<path d="M19.9801 194V48.5455H71.8267C83.143 48.5455 92.518 50.6051 99.9517 54.7244C107.385 58.8437 112.949 64.4782 116.642 71.6278C120.335 78.7301 122.182 86.732 122.182 95.6335C122.182 104.582 120.312 112.632 116.571 119.781C112.878 126.884 107.291 132.518 99.8097 136.685C92.3759 140.804 83.0246 142.864 71.7557 142.864H36.1023V124.256H69.767C76.9167 124.256 82.7169 123.025 87.1676 120.562C91.6184 118.053 94.8854 114.644 96.9688 110.335C99.0521 106.027 100.094 101.126 100.094 95.6335C100.094 90.1411 99.0521 85.2642 96.9688 81.0028C94.8854 76.7415 91.5947 73.4034 87.0966 70.9886C82.6458 68.5739 76.7746 67.3665 69.483 67.3665H41.9261V194H19.9801Z" fill="white"/>
<path d="M19.9801 194H11.9801V202H19.9801V194ZM19.9801 48.5455V40.5455H11.9801V48.5455H19.9801ZM116.642 71.6278L109.534 75.2994L109.539 75.309L109.544 75.3187L116.642 71.6278ZM116.571 119.781L109.483 116.073L109.478 116.082L109.473 116.09L116.571 119.781ZM99.8097 136.685L103.687 143.682L103.695 143.678L103.702 143.674L99.8097 136.685ZM36.1023 142.864H28.1023V150.864H36.1023V142.864ZM36.1023 124.256V116.256H28.1023V124.256H36.1023ZM87.1676 120.562L91.0401 127.563L91.0685 127.547L91.0967 127.531L87.1676 120.562ZM87.0966 70.9886L83.2815 78.0204L83.2971 78.0288L83.3127 78.0372L87.0966 70.9886ZM41.9261 67.3665V59.3665H33.9261V67.3665H41.9261ZM41.9261 194V202H49.9261V194H41.9261ZM19.9801 194H27.9801V48.5455H19.9801H11.9801V194H19.9801ZM19.9801 48.5455V56.5455H71.8267V48.5455V40.5455H19.9801V48.5455ZM71.8267 48.5455V56.5455C82.2199 56.5455 90.1559 58.4424 96.0741 61.7219L99.9517 54.7244L103.829 47.727C94.8801 42.7679 84.0661 40.5455 71.8267 40.5455V48.5455ZM99.9517 54.7244L96.0741 61.7219C102.208 65.121 106.608 69.6336 109.534 75.2994L116.642 71.6278L123.75 67.9563C119.29 59.3228 112.563 52.5665 103.829 47.727L99.9517 54.7244ZM116.642 71.6278L109.544 75.3187C112.581 81.1581 114.182 87.8708 114.182 95.6335H122.182H130.182C130.182 85.5932 128.09 76.3022 123.74 67.937L116.642 71.6278ZM122.182 95.6335H114.182C114.182 103.434 112.561 110.188 109.483 116.073L116.571 119.781L123.66 123.49C128.062 115.075 130.182 105.731 130.182 95.6335H122.182ZM116.571 119.781L109.473 116.09C106.554 121.705 102.13 126.235 95.917 129.696L99.8097 136.685L103.702 143.674C112.452 138.801 119.202 132.062 123.669 123.472L116.571 119.781ZM99.8097 136.685L95.9321 129.687C90.0095 132.969 82.0949 134.864 71.7557 134.864V142.864V150.864C83.9544 150.864 94.7424 148.639 103.687 143.682L99.8097 136.685ZM71.7557 142.864V134.864H36.1023V142.864V150.864H71.7557V142.864ZM36.1023 142.864H44.1023V124.256H36.1023H28.1023V142.864H36.1023ZM36.1023 124.256V132.256H69.767V124.256V116.256H36.1023V124.256ZM69.767 124.256V132.256C77.7518 132.256 85.0201 130.893 91.0401 127.563L87.1676 120.562L83.2951 113.562C80.4136 115.156 76.0815 116.256 69.767 116.256V124.256ZM87.1676 120.562L91.0967 127.531C96.8671 124.278 101.329 119.696 104.171 113.818L96.9688 110.335L89.7665 106.853C88.4422 109.592 86.3696 111.828 83.2385 113.594L87.1676 120.562ZM96.9688 110.335L104.171 113.818C106.852 108.273 108.094 102.154 108.094 95.6335H100.094H92.0938C92.0938 100.098 91.2524 103.78 89.7665 106.853L96.9688 110.335ZM100.094 95.6335H108.094C108.094 89.1154 106.852 83.005 104.156 77.4892L96.9688 81.0028L89.7817 84.5165C91.2517 87.5234 92.0938 91.1668 92.0938 95.6335H100.094ZM96.9688 81.0028L104.156 77.4892C101.279 71.6051 96.7362 67.0837 90.8805 63.9401L87.0966 70.9886L83.3127 78.0372C86.4532 79.7231 88.4916 81.8778 89.7817 84.5165L96.9688 81.0028ZM87.0966 70.9886L90.9117 63.9569C84.8873 60.6884 77.5586 59.3665 69.483 59.3665V67.3665V75.3665C75.9906 75.3665 80.4044 76.4593 83.2815 78.0204L87.0966 70.9886ZM69.483 67.3665V59.3665H41.9261V67.3665V75.3665H69.483V67.3665ZM41.9261 67.3665H33.9261V194H41.9261H49.9261V67.3665H41.9261ZM41.9261 194V186H19.9801V194V202H41.9261V194Z" fill="black" mask="url(#path-1-outside-1_2_30)"/>
<path d="M173.833 144.998L167.128 138.258C165.276 136.397 162.268 136.39 160.409 138.244L157.043 141.598L148.481 132.991C150.166 126.661 148.616 119.647 143.665 114.671L130.258 101.194C111.746 82.5866 81.6653 82.5226 63.0714 101.051L89.9168 114.556L89.905 120.129C89.8942 125.172 91.8852 130.014 95.4436 133.588L110.003 148.223C114.954 153.2 121.955 154.781 128.286 153.121L136.849 161.728L133.483 165.082C131.624 166.935 131.617 169.946 133.469 171.807L140.174 178.547C142.026 180.408 145.033 180.415 146.893 178.561L173.825 151.72C175.678 149.87 175.685 146.859 173.833 144.998ZM88.71 140.299C87.6137 139.197 86.684 137.98 85.7929 136.742L9.89824 207.361C2.29092 214.442 2.06054 226.421 9.38769 233.789C16.7148 241.157 28.687 240.978 35.7936 233.391L106.66 157.738C105.486 156.87 104.318 155.988 103.269 154.934L88.71 140.299Z" fill="white"/>
<path d="M173.833 144.998L167.128 138.258C165.276 136.397 162.268 136.39 160.409 138.244L157.043 141.598L148.481 132.991C150.166 126.661 148.616 119.647 143.665 114.671L130.258 101.194C111.746 82.5866 81.6653 82.5226 63.0714 101.051L89.9168 114.556L89.905 120.129C89.8942 125.172 91.8852 130.014 95.4436 133.588L110.003 148.223C114.954 153.2 121.955 154.781 128.286 153.121L136.849 161.728L133.483 165.082C131.624 166.935 131.617 169.946 133.469 171.807L140.174 178.547C142.026 180.408 145.033 180.415 146.893 178.561L173.825 151.72C175.678 149.87 175.685 146.859 173.833 144.998ZM88.71 140.299C87.6137 139.197 86.684 137.98 85.7929 136.742L9.89824 207.361C2.29092 214.442 2.06054 226.421 9.38769 233.789C16.7148 241.157 28.687 240.978 35.7936 233.391L106.66 157.738C105.486 156.87 104.318 155.988 103.269 154.934L88.71 140.299Z" stroke="black" stroke-width="7"/>
<path d="M173.833 144.998L167.128 138.258C165.276 136.397 162.268 136.39 160.409 138.244L157.043 141.598L148.481 132.991C150.166 126.661 148.616 119.647 143.665 114.671L130.258 101.194C111.746 82.5866 81.6653 82.5226 63.0714 101.051L89.9168 114.556L89.905 120.129C89.8942 125.172 91.8852 130.014 95.4436 133.588L110.003 148.223C114.954 153.2 121.955 154.781 128.286 153.121L136.849 161.728L133.483 165.082C131.624 166.935 131.617 169.946 133.469 171.807L140.174 178.547C142.026 180.408 145.033 180.415 146.893 178.561L173.825 151.72C175.678 149.87 175.685 146.859 173.833 144.998ZM88.71 140.299C87.6137 139.197 86.684 137.98 85.7929 136.742L9.89824 207.361C2.29092 214.442 2.06054 226.421 9.38769 233.789C16.7148 241.157 28.687 240.978 35.7936 233.391L106.66 157.738C105.486 156.87 104.318 155.988 103.269 154.934L88.71 140.299Z" stroke="black" stroke-opacity="0.2" stroke-width="7"/>
</svg>
