<svg width="230" height="222" viewBox="0 0 230 222" fill="none" xmlns="http://www.w3.org/2000/svg">
<path d="M60.7584 11.9647C77.6138 2.86341 96.4213 0.829136 114.934 0.753135C115.34 0.751337 115.747 0.750909 116.154 0.751889C138.771 0.682422 162.96 5.73582 182.008 19.4043C201.181 33.0492 215.909 52.7202 223.525 74.6669C228.317 88.3612 230.366 102.89 229.681 117.145C229.276 125.73 227.895 134.248 225.565 142.459C219.416 164.294 206.402 183.766 189.336 197.639C177.763 207.093 164.342 214.034 150.267 217.954C144.09 219.679 137.801 220.829 131.487 221.406C126.787 221.835 122.044 221.947 117.367 221.748C116.715 221.721 116.088 221.565 115.627 221.312C115.167 221.059 114.91 220.731 114.913 220.396C114.916 220.06 115.177 219.736 115.63 219.483C116.084 219.23 116.693 219.069 117.328 219.02C121.914 218.67 126.491 218.013 130.954 217.059C135.924 215.999 140.786 214.568 145.491 212.792C146.656 213.87 148.041 214.537 150.167 214.276C151.251 214.144 152.758 213.684 153.729 213.022C154.603 212.427 155.158 211.752 155.679 211.106C156.222 210.43 156.726 209.787 157.51 209.281C158.84 208.421 159.931 207.246 161.026 205.998C161.425 205.544 161.825 205.079 162.239 204.614C166.3 202.138 170.163 199.384 173.8 196.383C175.354 195.429 176.752 194.49 177.82 193.552C178.779 192.71 179.486 191.733 180.118 190.703C180.637 190.194 181.149 189.681 181.656 189.162C184.929 185.814 187.954 182.249 190.702 178.503C193.281 175.944 195.885 173.104 198.684 168.989C199.887 167.212 201.128 165.489 202.276 163.786C203.968 161.278 205.452 158.813 206.278 156.445C206.831 154.863 207.674 153.326 208.48 151.748C209.557 149.647 210.564 147.468 210.67 145.278C210.737 143.902 210.675 142.61 210.596 141.424C210.468 139.544 210.303 137.92 210.556 136.538C211.028 133.956 210.966 131.617 210.852 129.603C210.717 127.159 210.513 125.159 211.057 123.434C211.139 123.173 211.244 122.873 211.361 122.534C211.792 121.283 212.389 119.499 212.519 117.048C212.574 116.01 212.543 114.864 212.374 113.618C212.173 112.135 211.688 110.743 211.187 109.416C210.457 107.486 209.696 105.651 209.675 103.603C209.672 103.296 209.785 102.96 209.887 102.652C210.017 102.261 210.126 101.912 209.959 101.744C209.466 101.249 208.875 100.443 208.218 99.5924C207.735 98.9655 207.218 98.3191 206.685 97.7313C205.424 92.7078 203.751 87.8006 201.697 83.0831C200.758 80.9253 199.735 78.7955 198.638 76.7181C198.676 75.365 198.615 74.0019 198.369 72.6381C198.044 70.8517 197.099 68.7932 195.733 66.205C194.727 64.3028 193.493 62.1136 192.05 59.532C189.387 54.7291 185.422 50.6425 182.597 48.4205C182.001 47.9464 181.393 47.4806 180.736 46.993C178.23 45.172 175.126 42.8555 168.943 39.1231C163.076 35.6291 157.904 33.0964 153.935 31.3994C151.903 30.5316 150.198 29.8858 148.861 29.4503C146.581 28.7063 143.76 27.858 140.901 27.165C136.425 26.0593 131.838 25.3849 129.221 25.2401C128.292 25.1851 127.314 25.156 126.255 25.1423C123.54 25.1137 120.324 25.1659 116.015 25.3496C115.68 25.3644 115.34 25.3801 114.993 25.3971C109.956 25.6644 106.852 25.8281 103.581 25.9074C102.26 25.9458 101.024 25.603 99.7324 25.2733C97.9094 24.8068 95.9362 24.3667 93.5864 25.1721C93.0397 25.3603 92.4755 25.6294 91.8854 25.9185C90.8026 26.4492 89.656 27.0415 88.3843 27.3079C87.9392 27.4012 87.5143 27.3844 87.0975 27.3704C86.6389 27.3551 86.1879 27.3438 85.7287 27.4884C84.0167 28.0273 82.3824 28.6689 80.9512 29.2713C79.1078 30.0459 77.5811 30.7604 76.5826 31.0793C74.8013 31.6472 73.0454 32.7325 71.3346 33.88C70.0207 34.7594 68.7259 35.6779 67.4001 36.4424C63.6002 38.617 58.8146 42.384 54.6173 46.9221C53.0301 48.6354 51.3795 49.7325 49.2949 51.2435C48.002 52.1851 46.5435 53.2892 44.898 54.8384C43.9652 55.7181 43.4924 56.7376 43.0737 57.6776C42.6872 58.5454 42.3446 59.349 41.7133 59.959C41.156 60.4981 40.4755 60.5933 39.8248 60.6919C39.102 60.8013 38.4163 60.9147 38.016 61.6419C37.8035 62.0286 37.6975 62.6057 37.5814 63.2898C37.5356 63.5602 37.4873 63.8479 37.4311 64.1474C37.3568 64.0802 37.2851 64.0278 37.2296 63.9902C36.8368 63.7241 36.1613 64.28 35.5069 64.8419C35.2455 65.0659 34.9868 65.2915 34.7488 65.4615C33.8692 66.0865 32.824 67.6733 32.1241 68.9433C31.8268 69.4795 31.4266 69.8932 30.964 70.3809C30.5538 70.8138 30.0931 71.3066 29.62 72.0003C29.3505 72.3959 29.0623 72.6595 28.8232 72.8785C28.6502 73.037 28.5031 73.1727 28.4092 73.3198C28.3279 73.4473 28.396 73.6165 28.4734 73.8061C28.5292 73.9426 28.5896 74.0907 28.6029 74.2413C28.6343 74.6018 28.5129 74.9843 28.3391 75.2113C28.2588 75.316 28.1673 75.3858 28.0765 75.4551C27.9707 75.5359 27.8648 75.6162 27.7767 75.7543C27.3727 76.3879 27.215 77.1143 27.0612 77.8675C26.8913 78.6982 26.7291 79.5528 26.2429 80.3872C26.0899 80.6497 25.8789 80.9107 25.6754 81.1651C25.4624 81.4313 25.2572 81.6922 25.1365 81.9351C24.6452 82.9251 24.6151 84.0055 24.6018 84.9969C24.5929 85.6563 24.5912 86.2762 24.4645 86.8097C24.2317 87.7907 24.4671 88.4192 24.6402 88.8819C24.7303 89.1215 24.8054 89.3166 24.7932 89.4937C24.737 89.6428 24.6786 89.7936 24.6203 89.9411C24.551 90.0718 24.4796 90.2073 24.4503 90.3452C24.4481 90.3557 24.4469 90.3663 24.4448 90.3767C24.1066 91.1991 23.7419 92.0102 23.3926 92.8107C22.6077 94.6107 21.8752 96.4541 21.6653 98.4878C21.6199 98.9273 21.7042 99.3993 21.7936 99.8773C21.903 100.463 22.0202 101.06 21.915 101.629C21.6652 102.978 21.204 104.319 20.777 105.665C20.1357 107.673 19.5744 109.697 19.9202 111.593C20.0344 112.215 20.2519 112.826 20.4768 113.434C20.6021 113.773 20.7304 114.113 20.843 114.454C20.6219 114.378 20.4138 114.334 20.2197 114.294C19.8197 114.211 19.4769 114.139 19.1938 113.801C18.524 113.002 17.6142 112.066 16.9174 112.134C16.7282 112.153 16.5198 112.122 16.3101 112.088C15.7844 112.005 15.2451 111.915 14.9714 112.661C14.7859 113.161 14.3707 114.471 14.7679 115.317C14.854 115.5 15.0279 115.613 15.2212 115.738C15.3137 115.798 15.4109 115.86 15.5054 115.935C15.7658 116.14 16.005 116.436 16.0782 117.01C16.095 117.142 16.1106 117.285 16.1255 117.433C16.1847 118.023 16.2582 118.681 16.5449 118.919C16.8749 119.194 17.2437 119.123 17.6734 119.043C18.2334 118.937 18.8973 118.819 19.7185 119.386C19.8809 119.498 19.9423 119.718 19.9895 119.883C20.0227 120 20.0494 120.089 20.0976 120.097C20.1529 120.105 20.2658 120.063 20.4088 120.01C20.9143 119.822 21.7916 119.508 21.8788 120.706C21.9032 121.031 21.8794 121.409 21.8595 121.746C21.8301 122.244 21.8105 122.657 21.9598 122.702C22.0164 122.719 22.0773 122.73 22.1401 122.738C22.1484 123.131 22.159 123.523 22.172 123.915C22.0378 124.431 22.1108 125.128 22.2186 126.007C22.2448 126.221 22.2725 126.445 22.3001 126.679C22.3476 127.455 22.4047 128.229 22.4702 129.001C22.478 129.619 22.4503 130.278 22.368 130.997C22.2027 132.431 21.7946 133.736 21.4188 135.03C21.2605 135.574 21.1092 136.123 20.9854 136.674C20.9155 136.484 20.8452 136.314 20.7709 136.187C20.2631 135.318 19.5719 135.065 18.9318 134.823C18.5066 134.662 18.1055 134.508 17.8068 134.182C17.2607 133.584 16.7751 133.734 16.415 133.849C16.2283 133.909 16.0751 133.956 15.9663 133.881C15.8789 133.82 15.8145 133.655 15.7484 133.485C15.6907 133.337 15.6311 133.183 15.5543 133.092C14.6231 131.973 14.258 132.402 13.728 133.054C13.4362 133.412 13.0963 133.835 12.5825 134.091C12.0334 134.33 11.8561 134.313 11.5162 133.677C11.3187 134.249 11.1259 134.823 10.9377 135.401C10.9932 135.604 11.1985 135.729 11.5325 135.893C12.1279 136.188 12.561 137.411 12.9211 138.366C13.0866 138.807 13.2341 139.188 13.3636 139.393C14.055 140.48 14.5674 139.994 15.0178 139.578C15.266 139.349 15.4969 139.139 15.7268 139.21C15.8251 139.24 15.8953 139.149 15.9673 139.058C16.0229 138.987 16.0794 138.915 16.1502 138.896C16.6644 138.766 17.2003 139.357 17.7043 139.892C17.9926 140.199 18.2704 140.488 18.5219 140.623C18.5985 140.664 18.6735 140.693 18.7459 140.719C18.8517 140.758 18.9528 140.796 19.0503 140.872C19.2724 141.043 19.4975 141.454 19.7475 141.9C19.8756 142.129 20.0103 142.367 20.1536 142.587C20.3394 142.872 20.573 142.928 20.8169 142.987C20.9894 143.029 21.1673 143.073 21.3389 143.197C21.6491 143.421 21.8983 143.977 22.1353 144.49C22.2384 144.714 22.3395 144.928 22.4407 145.106C22.4818 145.179 22.5277 145.205 22.5775 145.199C23.0075 146.029 23.4392 146.809 23.8688 147.559C26.0459 151.321 28.0256 154.387 29.9802 159.484C30.3553 160.448 30.8849 161.418 31.492 162.362C33.0255 165.598 34.7401 168.76 36.6299 171.832C36.6486 172.689 36.8332 173.637 37.2039 174.663C37.903 176.591 39.0622 178.273 40.5025 180.199C41.5696 181.624 42.7904 183.182 44.1548 185.082C46.4501 188.27 49.0816 191.384 52.4744 194.451C55.8435 197.517 60.054 200.634 63.1915 202.599C64.8911 203.676 66.5265 205.095 68.0991 206.376C70.3103 208.18 72.4151 209.712 74.1205 209.673C74.6645 209.66 75.2616 209.48 75.8362 209.3C76.2452 209.171 76.6455 209.044 77.0117 208.976C77.7547 209.354 78.5051 209.723 79.261 210.085C80.4684 211.075 82.4811 212.362 84.7905 212.529C85.5934 212.855 86.3995 213.171 87.1845 213.47C88.9005 214.116 90.5956 214.708 92.3254 215.26C92.8904 215.441 93.4639 215.619 94.0415 215.792C94.0469 215.794 94.0524 215.795 94.0578 215.797C95.2182 216.145 96.3876 216.473 97.5532 216.78C98.052 216.911 98.5527 217.038 99.0554 217.162C100.328 217.475 101.612 217.765 102.89 218.03C103.564 218.17 104.257 218.305 104.937 218.433C106.046 218.64 107.171 218.831 108.3 219.004C110.135 219.283 111.932 219.514 113.778 219.701C114.079 219.731 114.368 219.815 114.581 219.939C114.794 220.064 114.914 220.218 114.913 220.376C114.912 220.534 114.788 220.688 114.571 220.808C114.354 220.928 114.059 221.003 113.754 221.023C111.878 221.143 110.035 221.214 108.138 221.232C106.972 221.243 105.803 221.235 104.645 221.207C103.934 221.191 103.21 221.164 102.501 221.133C101.157 221.073 99.7981 220.984 98.4443 220.869C97.9097 220.823 97.3758 220.774 96.8426 220.72C95.5934 220.595 94.3336 220.443 93.0763 220.269C93.0686 220.268 93.0611 220.267 93.0535 220.266C92.4338 220.179 91.8163 220.088 91.2066 219.993C89.3266 219.696 87.4678 219.352 85.5735 218.942C84.5941 218.734 83.5841 218.499 82.5745 218.249C82.013 218.111 81.4537 217.968 80.9059 217.823C80.6065 217.744 80.3036 217.661 79.9996 217.577C73.013 215.659 66.2259 213.015 59.6916 209.637C53.1808 206.273 46.9726 202.199 41.2342 197.518C35.4818 192.825 30.1928 187.519 25.4773 181.69C10.6954 163.53 1.79054 140.02 1.02856 115.853C0.0656207 90.9275 7.85566 65.3034 23.0665 44.7866C27.3126 39.0128 32.2472 33.4972 37.5427 28.6042C42.8959 23.6584 48.6047 19.2931 54.8307 15.4133C56.7191 14.2364 58.697 13.082 60.7584 11.9647Z" fill="white"/>
<path d="M149.283 60.6518C152.149 62.8948 155.482 69.0953 156.545 72.7211C156.567 72.7869 156.589 72.8527 156.611 72.9186C156.889 73.7698 157.153 74.5763 157.43 75.5284C158.025 77.7888 159.051 80.9672 158.78 87.5671C158.783 87.7112 158.784 87.8555 158.786 88C158.799 89.7691 158.698 91.5396 158.481 93.298C156.613 109.821 143.851 124.155 128.111 128.211L132.931 120.051C133.541 123.469 134.143 126.89 134.74 130.311C134.788 130.519 134.837 130.731 134.887 130.945C135.845 135.083 137.033 140.215 137.493 143.5C138.078 147.678 138.401 150.531 138.655 152.877C140.14 161.406 141.647 169.93 143.235 178.438L144.693 183.964L138.539 184.249C133.74 184.12 128.942 184.015 124.143 183.945C119.928 183.884 115.712 183.851 111.497 183.851C107.615 183.851 103.732 183.872 99.8506 183.911C97.59 184.054 95.4408 184.225 93.4478 184.382C93.2216 184.4 92.9975 184.418 92.7754 184.435L86.8452 184.71L87.8975 178.399C88.2334 175.885 88.5407 173.64 88.8805 171.776C89.7712 166.893 91.1917 161.441 92.2467 157.392C92.4191 156.73 92.582 156.106 92.7309 155.527C93.3401 152.263 93.9433 148.996 94.5442 145.73C94.6442 145.525 94.7469 145.318 94.8517 145.109C96.1598 142.492 96.882 139.085 98.0199 133.722C98.5154 131.386 99.0901 128.68 99.8257 125.506C100.3 123.461 100.809 122.467 101.225 121.655C101.347 121.416 101.461 121.192 101.564 120.963C101.623 120.831 101.673 120.696 101.713 120.557L104.147 124.77C103.408 124.476 102.564 124.355 101.588 124.172C100.078 123.887 98.2099 123.448 96.2678 121.948C90.2518 117.082 87.8683 114.881 85.7117 113.292C85.1069 112.809 84.5686 112.352 84.0807 111.83C82.4785 110.146 80.955 107.16 80.2422 104.781C79.6291 102.918 78.0176 99.3882 77.0826 96.5219C76.7153 95.4464 76.4318 93.9337 76.2442 92.1415C76.112 90.8807 76.0275 89.4917 75.9813 88C75.9593 87.2877 75.9458 86.5601 75.939 85.8138C75.9505 79.9353 76.8615 76.8055 77.5288 74.3617C77.7328 73.6649 77.9436 73.0158 78.1662 72.3759C78.8675 70.3473 79.9787 67.9055 81.3738 65.5784C83.0289 62.7834 85.0967 60.1831 86.7898 58.3012C91.5799 53.8266 97.4348 50.562 103.676 48.8312C106.885 47.9291 110.182 48.0333 112.501 48.8759C114.84 49.7179 116.002 51.1174 116 52.5081C115.992 53.9137 114.882 55.2314 113.168 56.419C111.445 57.6061 109.278 58.6065 107.012 59.4415C102.429 61.1111 98.3313 63.9113 95.1076 67.445C91.1687 71.749 88.5527 77.1109 87.5291 82.7515C87.2133 84.4775 87.049 86.2334 87.0369 88C87.0211 90.2762 87.258 92.5394 87.7499 94.7521C87.8395 95.1551 87.9382 95.5605 88.0448 95.96C89.2878 99.1339 91.1256 101.939 92.5242 103.787C93.6741 105.319 94.4422 106.489 95.1509 107.483C95.6398 108.164 96.1044 108.752 96.6686 109.246C96.9716 109.51 97.3978 109.859 97.9269 110.256C99.93 111.8 103.522 113.881 107.201 115.288L112.839 117.4L111.453 122.649C111.363 122.981 111.271 123.312 111.178 123.64C110.557 125.822 109.717 128.331 108.915 130.727C107.768 134.153 106.699 137.348 106.457 139.024C106.031 141.968 105.15 145.26 104.37 148.169C103.626 150.944 102.976 153.37 102.905 154.814C102.819 156.54 102.403 157.937 101.784 160.016C101.356 161.457 100.83 163.226 100.249 165.659C99.5778 168.468 98.958 170.425 98.4311 172.087C97.6895 174.427 97.1317 176.188 96.8724 178.935C96.8297 179.387 96.7835 179.842 96.7338 180.296L92.7754 175.398C95.3875 175.129 98.0118 174.977 100.146 175.074C101.287 175.125 102.592 175.113 103.951 175.1C105.749 175.082 107.64 175.064 109.367 175.193C110.79 175.299 111.966 175.571 113.007 175.812C113.332 175.887 113.643 175.958 113.945 176.021C115.078 176.018 116.212 176.013 117.345 176.005C117.529 175.961 117.722 175.912 117.923 175.862C118.934 175.612 120.176 175.304 121.714 175.151C124.149 174.908 126.285 175.06 128.538 175.221C130.293 175.347 132.118 175.478 134.211 175.431C135.539 175.401 137.039 175.303 138.539 175.2L134.388 180.338C134.357 180.23 134.326 180.123 134.295 180.016C133.633 177.711 132.98 175.435 132.735 173.809C132.643 173.2 132.699 172.647 132.755 172.1C132.756 172.097 132.756 172.095 132.757 172.092C132.761 172.055 132.764 172.018 132.768 171.981C131.802 168.1 130.822 164.221 129.835 160.345C129.719 160.015 129.603 159.682 129.489 159.352C128.93 157.738 128.386 156.171 127.88 155.181C127.331 154.108 126.54 151.286 125.706 148.311C125.16 146.363 124.596 144.349 124.069 142.719C123.761 141.766 123.735 140.805 123.708 139.816C123.682 138.893 123.657 137.946 123.401 136.96C123.273 136.465 123.086 135.942 122.886 135.384C122.71 134.892 122.525 134.372 122.361 133.821C122.209 133.309 122.053 132.13 121.853 130.618C121.73 129.684 121.589 128.622 121.422 127.512C121.021 125.935 120.622 124.358 120.225 122.78L119.271 117.044L124.367 115.767C125.413 115.404 126.433 114.983 127.425 114.506C127.831 114.163 128.144 113.795 128.339 113.415C128.479 113.141 128.565 112.851 128.649 112.555C128.761 112.151 128.869 111.736 129.089 111.322C129.262 110.999 129.53 110.75 129.779 110.693C129.896 110.667 130.008 110.683 130.109 110.696C130.226 110.711 130.33 110.724 130.413 110.669C130.473 110.629 130.507 110.544 130.549 110.441C130.616 110.275 130.701 110.062 130.934 109.897C131.805 109.282 132.791 108.574 133.706 107.809C134.726 106.962 135.655 106.045 136.293 105.231C137.011 104.324 138.161 103.13 139.184 101.789C139.899 100.859 140.553 99.8664 141.01 98.9609C141.459 98.0746 141.723 97.0608 141.916 96.0828C142.15 94.905 142.287 93.7736 142.628 92.8499C142.697 92.6621 142.949 92.4577 143.259 92.1892C143.478 91.9988 143.728 91.7733 143.962 91.5023C144.105 90.3444 144.184 89.1765 144.197 88C144.199 87.8742 144.199 87.7486 144.199 87.6233C144.17 87.5778 144.14 87.531 144.109 87.4844C144.108 87.4837 144.107 87.4829 144.107 87.4822C143.405 86.4169 142.424 85.1461 142.629 83.1483C142.678 82.635 142.866 82.2735 143.031 81.9402C143.192 81.6136 143.333 81.3151 143.281 80.9398C143.221 80.511 142.949 80.0597 142.639 79.5858C142.202 78.9148 141.694 78.2123 141.572 77.3425C141.564 77.2829 141.555 77.219 141.545 77.1521C141.449 76.5177 141.28 75.5864 141.252 74.534C140.046 72.0095 138.475 69.6321 136.583 67.504C133.433 63.9543 129.383 61.1102 124.815 59.3877C122.602 58.5432 120.474 57.5405 118.782 56.3625C117.098 55.1832 116.007 53.8871 116 52.5081C115.998 51.1435 117.137 49.7697 119.427 48.9226C121.697 48.0756 124.924 47.9328 128.086 48.7573C133.236 50.0839 138.165 52.4489 142.476 55.6986C142.712 55.8558 142.948 56.0173 143.18 56.1816C144.904 57.4041 146.571 58.5187 148.184 59.7669C148.554 60.0536 148.921 60.348 149.283 60.6518Z" fill="white"/>
</svg>
