<svg width="230" height="222" viewBox="0 0 230 222" fill="none" xmlns="http://www.w3.org/2000/svg">
<path d="M60.3474 11.5536C77.2028 2.45234 96.0102 0.418064 114.523 0.342064C114.929 0.340266 115.336 0.339837 115.743 0.340818C138.36 0.27135 162.549 5.32475 181.597 18.9933C200.77 32.6381 215.498 52.3092 223.114 74.2558C227.906 87.9501 229.955 102.479 229.269 116.734C228.865 125.319 227.484 133.837 225.154 142.048C219.005 163.883 205.991 183.355 188.925 197.227C177.352 206.681 163.931 213.623 149.856 217.543C143.679 219.268 137.39 220.418 131.076 220.995C126.376 221.424 121.633 221.536 116.956 221.337C116.304 221.309 115.676 221.154 115.216 220.901C114.756 220.648 114.499 220.32 114.502 219.985C114.505 219.649 114.766 219.325 115.219 219.072C115.673 218.819 116.282 218.658 116.917 218.609C121.503 218.259 126.08 217.602 130.543 216.648C135.513 215.588 140.375 214.157 145.08 212.381C146.245 213.459 147.63 214.126 149.756 213.865C150.84 213.733 152.347 213.273 153.318 212.61C154.191 212.016 154.747 211.341 155.268 210.695C155.811 210.019 156.314 209.375 157.099 208.87C158.429 208.01 159.52 206.835 160.615 205.587C161.014 205.133 161.414 204.668 161.828 204.203C165.889 201.727 169.752 198.973 173.389 195.972C174.943 195.018 176.341 194.079 177.409 193.141C178.368 192.299 179.075 191.322 179.707 190.292C180.226 189.783 180.738 189.27 181.245 188.751C184.518 185.403 187.543 181.837 190.291 178.092C192.87 175.533 195.473 172.693 198.273 168.578C199.476 166.801 200.717 165.078 201.865 163.375C203.557 160.867 205.041 158.402 205.867 156.034C206.42 154.452 207.263 152.915 208.069 151.337C209.146 149.236 210.153 147.057 210.259 144.867C210.326 143.491 210.264 142.199 210.185 141.013C210.057 139.133 209.892 137.509 210.145 136.127C210.617 133.545 210.555 131.206 210.441 129.192C210.306 126.748 210.102 124.748 210.646 123.023C210.728 122.762 210.833 122.462 210.95 122.123C211.381 120.872 211.978 119.087 212.108 116.637C212.163 115.599 212.132 114.453 211.963 113.207C211.762 111.724 211.277 110.332 210.776 109.005C210.046 107.075 209.285 105.24 209.264 103.192C209.261 102.885 209.374 102.549 209.476 102.241C209.606 101.85 209.715 101.501 209.547 101.333C209.055 100.838 208.464 100.032 207.807 99.1813C207.324 98.5544 206.807 97.908 206.274 97.3202C205.013 92.2967 203.339 87.3895 201.286 82.6721C200.347 80.5142 199.324 78.3844 198.227 76.307C198.265 74.9539 198.204 73.5909 197.958 72.227C197.633 70.4406 196.687 68.3822 195.322 65.7939C194.316 63.8917 193.081 61.7025 191.639 59.1209C188.976 54.318 185.011 50.2314 182.186 48.0094C181.59 47.5353 180.982 47.0696 180.325 46.5819C177.819 44.761 174.715 42.4444 168.532 38.712C162.665 35.218 157.493 32.6853 153.524 30.9884C151.492 30.1205 149.787 29.4747 148.45 29.0392C146.17 28.2953 143.349 27.4469 140.49 26.7539C136.014 25.6483 131.427 24.9739 128.81 24.8291C127.881 24.774 126.903 24.745 125.844 24.7313C123.129 24.7026 119.913 24.7548 115.604 24.9386C115.269 24.9533 114.929 24.9691 114.582 24.986C109.544 25.2533 106.441 25.417 103.17 25.4963C101.849 25.5347 100.613 25.1919 99.3213 24.8622C97.4983 24.3957 95.5251 23.9557 93.1754 24.761C92.6286 24.9493 92.0644 25.2183 91.4743 25.5074C90.3916 26.0381 89.245 26.6304 87.9732 26.8968C87.5281 26.9902 87.1033 26.9734 86.6864 26.9593C86.2279 26.944 85.7768 26.9327 85.3177 27.0773C83.6057 27.6162 81.9714 28.2579 80.5401 28.8602C78.6968 29.6348 77.17 30.3494 76.1716 30.6683C74.3902 31.2361 72.6343 32.3214 70.9235 33.4689C69.6096 34.3483 68.3148 35.2668 66.989 36.0314C63.1892 38.2059 58.4036 41.9729 54.2062 46.511C52.619 48.2243 50.9684 49.3215 48.8839 50.8324C47.5909 51.774 46.1325 52.8782 44.4869 54.4273C43.5542 55.3071 43.0813 56.3265 42.6627 57.2666C42.2762 58.1343 41.9336 58.938 41.3022 59.548C40.7449 60.087 40.0644 60.1823 39.4138 60.2809C38.691 60.3902 38.0052 60.5036 37.6049 61.2308C37.3925 61.6176 37.2865 62.1946 37.1704 62.8787C37.1246 63.1491 37.0763 63.4368 37.02 63.7363C36.9457 63.6691 36.8741 63.6167 36.8185 63.5791C36.4257 63.313 35.7502 63.8689 35.0959 64.4308C34.8344 64.6548 34.5757 64.8805 34.3377 65.0505C33.4581 65.6754 32.4129 67.2622 31.7131 68.5322C31.4157 69.0684 31.0155 69.4821 30.553 69.9698C30.1428 70.4027 29.6821 70.8955 29.209 71.5892C28.9394 71.9849 28.6512 72.2484 28.4122 72.4674C28.2392 72.6259 28.092 72.7616 27.9981 72.9087C27.9169 73.0362 27.9849 73.2054 28.0624 73.395C28.1181 73.5315 28.1786 73.6796 28.1919 73.8303C28.2233 74.1908 28.1018 74.5732 27.928 74.8002C27.8477 74.9049 27.7563 74.9747 27.6655 75.044C27.5597 75.1249 27.4538 75.2052 27.3657 75.3432C26.9617 75.9769 26.8039 76.7032 26.6502 77.4564C26.4802 78.2871 26.318 79.1417 25.8318 79.9761C25.6789 80.2386 25.4679 80.4996 25.2644 80.754C25.0514 81.0202 24.8462 81.2812 24.7255 81.524C24.2342 82.514 24.204 83.5944 24.1907 84.5859C24.1819 85.2453 24.1802 85.8652 24.0534 86.3986C23.8206 87.3797 24.0561 88.0081 24.2292 88.4708C24.3193 88.7104 24.3944 88.9055 24.3821 89.0826C24.326 89.2317 24.2675 89.3826 24.2092 89.53C24.1399 89.6607 24.0686 89.7962 24.0393 89.9342C24.0371 89.9446 24.0359 89.9552 24.0337 89.9656C23.6956 90.788 23.3309 91.5991 22.9816 92.3996C22.1967 94.1996 21.4642 96.0431 21.2543 98.0767C21.2089 98.5163 21.2932 98.9882 21.3825 99.4662C21.4919 100.052 21.6092 100.649 21.5039 101.218C21.2542 102.567 20.793 103.908 20.366 105.253C19.7247 107.262 19.1633 109.286 19.5092 111.182C19.6234 111.804 19.8408 112.415 20.0657 113.023C20.1911 113.362 20.3193 113.702 20.432 114.043C20.2109 113.967 20.0027 113.923 19.8086 113.883C19.4086 113.8 19.0658 113.728 18.7827 113.389C18.1129 112.591 17.2031 111.655 16.5063 111.723C16.3172 111.742 16.1088 111.711 15.8991 111.677C15.3734 111.594 14.8341 111.504 14.5603 112.25C14.3748 112.75 13.9596 114.06 14.3568 114.906C14.4429 115.089 14.6168 115.202 14.8101 115.327C14.9027 115.387 14.9998 115.449 15.0944 115.524C15.3547 115.729 15.594 116.025 15.6671 116.599C15.6839 116.731 15.6995 116.874 15.7145 117.022C15.7737 117.612 15.8471 118.27 16.1338 118.508C16.4639 118.783 16.8326 118.712 17.2624 118.631C17.8224 118.526 18.4863 118.408 19.3074 118.975C19.4698 119.087 19.5313 119.307 19.5785 119.472C19.6117 119.589 19.6383 119.678 19.6865 119.686C19.7418 119.694 19.8548 119.652 19.9978 119.599C20.5032 119.411 21.3805 119.097 21.4678 120.295C21.4922 120.62 21.4683 120.998 21.4485 121.335C21.4191 121.833 21.3995 122.246 21.5487 122.291C21.6053 122.308 21.6662 122.319 21.7291 122.327C21.7373 122.72 21.7479 123.112 21.761 123.504C21.6268 124.019 21.6997 124.716 21.8075 125.596C21.8337 125.81 21.8614 126.034 21.8891 126.268C21.9365 127.044 21.9936 127.818 22.0592 128.59C22.067 129.208 22.0392 129.867 21.9569 130.586C21.7916 132.02 21.3835 133.325 21.0078 134.619C20.8495 135.163 20.6982 135.712 20.5743 136.263C20.5044 136.073 20.4341 135.903 20.3598 135.776C19.852 134.906 19.1609 134.654 18.5207 134.412C18.0955 134.251 17.6944 134.097 17.3957 133.771C16.8496 133.173 16.364 133.323 16.0039 133.438C15.8172 133.498 15.6641 133.545 15.5552 133.47C15.4679 133.409 15.4034 133.244 15.3373 133.074C15.2797 132.926 15.2201 132.772 15.1432 132.681C14.2121 131.562 13.847 131.991 13.317 132.643C13.0251 133.001 12.6852 133.424 12.1715 133.68C11.6223 133.919 11.445 133.902 11.1051 133.266C10.9077 133.838 10.7148 134.412 10.5266 134.99C10.5821 135.193 10.7875 135.318 11.1214 135.482C11.7168 135.777 12.15 137 12.51 137.955C12.6756 138.396 12.8231 138.777 12.9526 138.982C13.6439 140.069 14.1563 139.582 14.6067 139.167C14.8549 138.938 15.0858 138.728 15.3158 138.799C15.4141 138.829 15.4843 138.738 15.5562 138.647C15.6118 138.576 15.6684 138.504 15.7391 138.485C16.2533 138.355 16.7893 138.946 17.2932 139.481C17.5815 139.788 17.8594 140.077 18.1108 140.212C18.1874 140.253 18.2624 140.282 18.3349 140.308C18.4407 140.347 18.5417 140.385 18.6393 140.461C18.8613 140.632 19.0864 141.043 19.3364 141.489C19.4646 141.718 19.5992 141.956 19.7425 142.176C19.9283 142.461 20.1619 142.517 20.4059 142.576C20.5783 142.618 20.7563 142.662 20.9278 142.786C21.238 143.01 21.4873 143.566 21.7242 144.079C21.8273 144.303 21.9285 144.517 22.0296 144.695C22.0707 144.767 22.1167 144.794 22.1665 144.788C22.5965 145.618 23.0282 146.398 23.4577 147.148C25.6348 150.91 27.6145 153.976 29.5692 159.073C29.9442 160.037 30.4739 161.007 31.0809 161.951C32.6144 165.187 34.329 168.349 36.2189 171.421C36.2375 172.278 36.4222 173.226 36.7928 174.252C37.492 176.18 38.6511 177.862 40.0915 179.788C41.1586 181.213 42.3793 182.771 43.7437 184.671C46.039 187.859 48.6705 190.973 52.0633 194.04C55.4324 197.106 59.6429 200.223 62.7805 202.188C64.4801 203.265 66.1154 204.684 67.6881 205.965C69.8993 207.769 72.0041 209.301 73.7095 209.262C74.2534 209.249 74.8506 209.069 75.4252 208.889C75.8342 208.76 76.2345 208.633 76.6007 208.565C77.3437 208.943 78.0941 209.312 78.8499 209.673C80.0574 210.664 82.0701 211.951 84.3794 212.118C85.1824 212.444 85.9885 212.76 86.7734 213.059C88.4895 213.705 90.1846 214.297 91.9144 214.849C92.4794 215.03 93.0528 215.208 93.6304 215.381C93.6359 215.383 93.6413 215.384 93.6468 215.386C94.8071 215.734 95.9766 216.062 97.1421 216.369C97.641 216.5 98.1417 216.627 98.6443 216.751C99.9169 217.064 101.201 217.354 102.479 217.619C103.153 217.759 103.846 217.894 104.526 218.022C105.635 218.229 106.76 218.42 107.889 218.593C109.724 218.872 111.521 219.103 113.367 219.289C113.668 219.32 113.957 219.404 114.17 219.528C114.383 219.653 114.503 219.807 114.502 219.965C114.501 220.123 114.377 220.277 114.16 220.397C113.943 220.516 113.648 220.592 113.343 220.612C111.467 220.732 109.624 220.803 107.727 220.821C106.561 220.832 105.392 220.824 104.234 220.796C103.523 220.78 102.799 220.753 102.09 220.722C100.746 220.662 99.387 220.573 98.0332 220.458C97.4986 220.412 96.9647 220.363 96.4316 220.309C95.1823 220.184 93.9225 220.032 92.6652 219.858C92.6576 219.857 92.65 219.856 92.6424 219.855C92.0228 219.768 91.4053 219.677 90.7955 219.582C88.9155 219.285 87.0567 218.941 85.1624 218.531C84.183 218.323 83.1731 218.088 82.1634 217.838C81.6019 217.699 81.0427 217.557 80.4948 217.412C80.1954 217.333 79.8926 217.25 79.5885 217.166C72.6019 215.248 65.8148 212.604 59.2806 209.226C52.7697 205.862 46.5616 201.788 40.8231 197.107C35.0708 192.414 29.7818 187.108 25.0663 181.278C10.2843 163.119 1.37948 139.609 0.617503 115.442C-0.345436 90.5164 7.44461 64.8923 22.6554 44.3755C26.9016 38.6017 31.8361 33.0862 37.1316 28.1931C42.4849 23.2473 48.1936 18.882 54.4197 15.0022C56.308 13.8254 58.286 12.671 60.3474 11.5536Z" fill="black"/>
<path d="M148.872 60.2408C151.738 62.4837 155.071 68.6843 156.134 72.3101C156.156 72.3758 156.178 72.4417 156.2 72.5075C156.478 73.3588 156.742 74.1653 157.019 75.1173C157.614 77.3778 158.639 80.5561 158.369 87.156C158.372 87.3002 158.373 87.4445 158.374 87.5889C158.388 89.358 158.287 91.1285 158.069 92.887C156.202 109.41 143.44 123.743 127.7 127.8L132.52 119.64C133.13 123.058 133.732 126.479 134.329 129.9C134.377 130.108 134.426 130.32 134.476 130.534C135.434 134.672 136.622 139.804 137.082 143.089C137.667 147.267 137.99 150.12 138.244 152.466C139.729 160.995 141.236 169.519 142.824 178.027L144.282 183.553L138.128 183.838C133.329 183.709 128.531 183.604 123.732 183.534C119.517 183.473 115.301 183.44 111.086 183.44C107.204 183.44 103.321 183.461 99.4396 183.5C97.179 183.643 95.0297 183.814 93.0367 183.971C92.8105 183.989 92.5864 184.007 92.3643 184.024L86.4341 184.299L87.4864 177.988C87.8224 175.474 88.1296 173.229 88.4694 171.365C89.3601 166.482 90.7806 161.03 91.8356 156.981C92.008 156.319 92.1709 155.695 92.3199 155.116C92.9291 151.852 93.5322 148.585 94.1331 145.319C94.2332 145.114 94.3358 144.907 94.4406 144.698C95.7488 142.081 96.4709 138.674 97.6088 133.311C98.1043 130.975 98.6791 128.268 99.4146 125.095C99.8886 123.049 100.398 122.056 100.814 121.244C100.936 121.005 101.05 120.781 101.153 120.552C101.212 120.42 101.261 120.285 101.302 120.146L103.736 124.359C102.997 124.065 102.153 123.944 101.177 123.761C99.6669 123.476 97.7988 123.037 95.8567 121.537C89.8408 116.671 87.4572 114.47 85.3006 112.88C84.6958 112.398 84.1575 111.941 83.6696 111.419C82.0675 109.735 80.544 106.749 79.8312 104.37C79.218 102.507 77.6065 98.9771 76.6715 96.1108C76.3042 95.0353 76.0207 93.5226 75.8332 91.7305C75.7009 90.4696 75.6165 89.0806 75.5703 87.5889C75.5482 86.8767 75.5348 86.1491 75.528 85.4028C75.5394 79.5242 76.4505 76.3944 77.1177 73.9507C77.3218 73.2538 77.5325 72.6047 77.7551 71.9648C78.4564 69.9362 79.5676 67.4944 80.9627 65.1674C82.6178 62.3723 84.6856 59.772 86.3787 57.8902C91.1688 53.4155 97.0237 50.1509 103.265 48.4201C106.474 47.518 109.771 47.6222 112.09 48.4648C114.429 49.3068 115.591 50.7064 115.589 52.0971C115.581 53.5027 114.471 54.8203 112.757 56.0079C111.034 57.1951 108.867 58.1954 106.601 59.0304C102.018 60.7 97.9202 63.5002 94.6966 67.0339C90.7577 71.338 88.1417 76.6998 87.118 82.3405C86.8022 84.0664 86.638 85.8223 86.6258 87.5889C86.61 89.8651 86.8469 92.1283 87.3389 94.341C87.4284 94.744 87.5271 95.1495 87.6337 95.549C88.8767 98.7228 90.7145 101.528 92.1131 103.376C93.263 104.908 94.0312 106.078 94.7398 107.072C95.2287 107.753 95.6933 108.341 96.2575 108.835C96.5605 109.099 96.9867 109.448 97.5159 109.845C99.519 111.389 103.111 113.47 106.79 114.877L112.428 116.989L111.042 122.237C110.952 122.57 110.86 122.9 110.767 123.229C110.145 125.411 109.306 127.92 108.504 130.316C107.357 133.742 106.288 136.936 106.046 138.613C105.62 141.557 104.738 144.849 103.959 147.758C103.215 150.532 102.565 152.959 102.494 154.403C102.408 156.129 101.992 157.526 101.373 159.605C100.944 161.046 100.419 162.815 99.8377 165.248C99.1667 168.057 98.5469 170.013 98.02 171.676C97.2785 174.016 96.7207 175.777 96.4613 178.524C96.4186 178.976 96.3725 179.431 96.3228 179.885L92.3643 174.987C94.9764 174.718 97.6007 174.566 99.7347 174.663C100.876 174.714 102.181 174.702 103.54 174.689C105.338 174.671 107.229 174.653 108.956 174.782C110.379 174.888 111.555 175.16 112.596 175.4C112.921 175.476 113.232 175.547 113.534 175.61C114.667 175.607 115.801 175.602 116.934 175.593C117.118 175.55 117.311 175.501 117.512 175.451C118.523 175.201 119.765 174.893 121.303 174.74C123.738 174.497 125.874 174.649 128.127 174.81C129.882 174.936 131.707 175.067 133.8 175.02C135.128 174.99 136.628 174.892 138.128 174.789L133.977 179.927C133.946 179.819 133.915 179.712 133.884 179.605C133.222 177.3 132.569 175.024 132.324 173.398C132.232 172.788 132.288 172.236 132.344 171.689C132.345 171.686 132.345 171.684 132.346 171.681C132.35 171.644 132.353 171.607 132.357 171.57C131.39 167.689 130.411 163.81 129.424 159.934C129.308 159.604 129.192 159.271 129.078 158.941C128.519 157.327 127.975 155.759 127.469 154.77C126.92 153.697 126.129 150.874 125.295 147.9C124.749 145.952 124.184 143.938 123.658 142.308C123.35 141.355 123.323 140.394 123.297 139.405C123.271 138.482 123.246 137.535 122.99 136.548C122.862 136.054 122.675 135.531 122.475 134.973C122.299 134.481 122.113 133.961 121.95 133.41C121.798 132.898 121.642 131.719 121.442 130.207C121.318 129.273 121.177 128.211 121.011 127.101C120.61 125.524 120.211 123.947 119.814 122.369L118.86 116.632L123.956 115.356C125.002 114.992 126.021 114.572 127.014 114.095C127.42 113.752 127.733 113.384 127.928 113.004C128.068 112.73 128.154 112.44 128.237 112.144C128.35 111.74 128.458 111.325 128.678 110.911C128.851 110.588 129.119 110.339 129.368 110.282C129.485 110.256 129.597 110.272 129.698 110.285C129.815 110.3 129.919 110.313 130.002 110.258C130.062 110.218 130.096 110.133 130.138 110.03C130.205 109.864 130.29 109.651 130.523 109.486C131.394 108.871 132.379 108.163 133.295 107.398C134.315 106.551 135.244 105.634 135.882 104.82C136.6 103.913 137.75 102.718 138.773 101.378C139.488 100.448 140.142 99.4553 140.599 98.5498C141.048 97.6636 141.312 96.6497 141.505 95.6717C141.739 94.4939 141.876 93.3625 142.217 92.4388C142.286 92.251 142.538 92.0466 142.848 91.7781C143.067 91.5877 143.317 91.3622 143.551 91.0912C143.694 89.9333 143.773 88.7654 143.786 87.5889C143.787 87.4631 143.788 87.3376 143.788 87.2122C143.759 87.1667 143.729 87.12 143.698 87.0733C143.697 87.0726 143.696 87.0719 143.696 87.0711C142.994 86.0058 142.013 84.7351 142.218 82.7372C142.267 82.2239 142.455 81.8625 142.62 81.5291C142.781 81.2026 142.922 80.904 142.87 80.5288C142.81 80.0999 142.538 79.6487 142.228 79.1747C141.791 78.5037 141.283 77.8012 141.161 76.9314C141.153 76.8719 141.144 76.8079 141.134 76.741C141.038 76.1066 140.869 75.1754 140.841 74.1229C139.635 71.5985 138.064 69.2211 136.172 67.0929C133.022 63.5433 128.972 60.6991 124.404 58.9766C122.191 58.1321 120.063 57.1294 118.371 55.9514C116.687 54.7722 115.596 53.4761 115.589 52.0971C115.587 50.7325 116.726 49.3586 119.016 48.5116C121.286 47.6646 124.513 47.5217 127.675 48.3462C132.825 49.6729 137.754 52.0378 142.065 55.2875C142.301 55.4447 142.537 55.6062 142.769 55.7705C144.493 56.993 146.16 58.1077 147.773 59.3558C148.143 59.6425 148.51 59.9369 148.872 60.2408Z" fill="black"/>
</svg>
